<svg xmlns="http://www.w3.org/2000/svg" width="1100" height="360" viewBox="0 0 1100 360" role="img" aria-label="AI development timeline"><rect width="100%" height="100%" fill="#fff"/><g font-family="Arial, sans-serif" fill="#0f172a"><text x="45" y="45" font-size="28" font-weight="700">AI development path</text><line x1="75" y1="185" x2="1025" y2="185" stroke="#334155" stroke-width="4"/><circle cx="95" cy="185" r="9" fill="#2563eb"/><text x="70" y="150" font-size="16">1950</text><text x="53" y="225" font-size="16">Turing</text><circle cx="210" cy="185" r="9" fill="#2563eb"/><text x="185" y="150" font-size="16">1958</text><text x="168" y="225" font-size="16">Perceptron</text><circle cx="325" cy="185" r="9" fill="#2563eb"/><text x="300" y="150" font-size="16">1980</text><text x="283" y="225" font-size="16">Neocognitron</text><circle cx="440" cy="185" r="9" fill="#2563eb"/><text x="415" y="150" font-size="16">1986</text><text x="398" y="225" font-size="16">Backprop</text><circle cx="555" cy="185" r="9" fill="#2563eb"/><text x="530" y="150" font-size="16">1995</text><text x="513" y="225" font-size="16">SVM</text><circle cx="670" cy="185" r="9" fill="#2563eb"/><text x="645" y="150" font-size="16">1997</text><text x="628" y="225" font-size="16">LSTM</text><circle cx="785" cy="185" r="9" fill="#2563eb"/><text x="760" y="150" font-size="16">2012</text><text x="743" y="225" font-size="16">AlexNet</text><circle cx="900" cy="185" r="9" fill="#2563eb"/><text x="875" y="150" font-size="16">2015</text><text x="858" y="225" font-size="16">ResNet</text><circle cx="1015" cy="185" r="9" fill="#2563eb"/><text x="990" y="150" font-size="16">2017</text><text x="973" y="225" font-size="16">Transformer</text></g></svg>