<svg xmlns="http://www.w3.org/2000/svg" width="960" height="360" viewBox="0 0 960 360" role="img" aria-label="Backpropagation computation graph"><rect width="100%" height="100%" fill="#fff"/><defs><marker id="a" markerWidth="10" markerHeight="10" refX="9" refY="3" orient="auto"><path d="M0,0 L0,6 L9,3 z" fill="#475569"/></marker></defs><g font-family="Arial, sans-serif" fill="#0f172a"><text x="45" y="48" font-size="26" font-weight="700">Forward pass and backward gradients</text><rect x="80" y="140" width="115" height="70" rx="14" fill="#dbeafe" stroke="#2563eb" stroke-width="3"/><text x="107.5" y="182.0" font-size="20">Input</text><rect x="260" y="140" width="115" height="70" rx="14" fill="#dbeafe" stroke="#2563eb" stroke-width="3"/><text x="287.5" y="182.0" font-size="20">Layer1</text><rect x="440" y="140" width="115" height="70" rx="14" fill="#dbeafe" stroke="#2563eb" stroke-width="3"/><text x="467.5" y="182.0" font-size="20">Layer2</text><rect x="620" y="140" width="115" height="70" rx="14" fill="#dbeafe" stroke="#2563eb" stroke-width="3"/><text x="647.5" y="182.0" font-size="20">Output</text><rect x="800" y="140" width="95" height="70" rx="14" fill="#fee2e2" stroke="#dc2626" stroke-width="3"/><text x="817.5" y="182.0" font-size="20">Loss</text><line x1="198" y1="175" x2="255" y2="175" stroke="#2563eb" stroke-width="4" marker-end="url(#a)"/><line x1="378" y1="175" x2="435" y2="175" stroke="#2563eb" stroke-width="4" marker-end="url(#a)"/><line x1="558" y1="175" x2="615" y2="175" stroke="#2563eb" stroke-width="4" marker-end="url(#a)"/><line x1="738" y1="175" x2="795" y2="175" stroke="#2563eb" stroke-width="4" marker-end="url(#a)"/><path d="M850 230 C720 315 390 315 320 225" fill="none" stroke="#dc2626" stroke-width="4"/><path d="M850 255 C680 342 225 342 140 225" fill="none" stroke="#dc2626" stroke-width="4"/><text x="385" y="330" font-size="20" fill="#dc2626">gradients flow backward by chain rule</text></g></svg>