<svg xmlns="http://www.w3.org/2000/svg" width="960" height="360" viewBox="0 0 960 360" role="img" aria-label="Neocognitron layered architecture"><rect width="100%" height="100%" fill="#fff"/><defs><marker id="a" markerWidth="10" markerHeight="10" refX="9" refY="3" orient="auto"><path d="M0,0 L0,6 L9,3 z" fill="#475569"/></marker></defs><g font-family="Arial, sans-serif" fill="#0f172a"><text x="45" y="48" font-size="26" font-weight="700">Neocognitron: local features to object concepts</text><rect x="55" y="130" width="110" height="100" rx="14" fill="#e0f2fe" stroke="#0284c7" stroke-width="3"/><text x="80.0" y="187.0" font-size="20">Input</text><rect x="235" y="95" width="105" height="65" rx="14" fill="#fef3c7" stroke="#f59e0b" stroke-width="3"/><text x="257.5" y="134.5" font-size="20">S cells</text><rect x="235" y="205" width="105" height="65" rx="14" fill="#dcfce7" stroke="#16a34a" stroke-width="3"/><text x="257.5" y="244.5" font-size="20">C cells</text><rect x="415" y="95" width="105" height="65" rx="14" fill="#fef3c7" stroke="#f59e0b" stroke-width="3"/><text x="437.5" y="134.5" font-size="20">S cells</text><rect x="415" y="205" width="105" height="65" rx="14" fill="#dcfce7" stroke="#16a34a" stroke-width="3"/><text x="437.5" y="244.5" font-size="20">C cells</text><rect x="625" y="130" width="120" height="100" rx="14" fill="#ede9fe" stroke="#7c3aed" stroke-width="3"/><text x="655.0" y="187.0" font-size="20">Features</text><rect x="825" y="130" width="95" height="100" rx="14" fill="#fee2e2" stroke="#dc2626" stroke-width="3"/><text x="842.5" y="187.0" font-size="20">Class</text><line x1="168" y1="180" x2="230" y2="130" stroke="#475569" stroke-width="3" marker-end="url(#a)"/><line x1="168" y1="180" x2="230" y2="238" stroke="#475569" stroke-width="3" marker-end="url(#a)"/><line x1="342" y1="128" x2="410" y2="128" stroke="#475569" stroke-width="3" marker-end="url(#a)"/><line x1="342" y1="238" x2="410" y2="238" stroke="#475569" stroke-width="3" marker-end="url(#a)"/><line x1="522" y1="128" x2="620" y2="168" stroke="#475569" stroke-width="3" marker-end="url(#a)"/><line x1="522" y1="238" x2="620" y2="198" stroke="#475569" stroke-width="3" marker-end="url(#a)"/><line x1="747" y1="180" x2="820" y2="180" stroke="#475569" stroke-width="3" marker-end="url(#a)"/></g></svg>