<svg xmlns="http://www.w3.org/2000/svg" width="960" height="360" viewBox="0 0 960 360" role="img" aria-label="Perceptron neuron model"><rect width="100%" height="100%" fill="#fff"/><defs><marker id="a" markerWidth="10" markerHeight="10" refX="9" refY="3" orient="auto"><path d="M0,0 L0,6 L9,3 z" fill="#475569"/></marker></defs><g font-family="Arial, sans-serif" fill="#0f172a"><text x="40" y="45" font-size="26" font-weight="700">Perceptron neuron model</text><circle cx="90" cy="115" r="28" fill="#dbeafe" stroke="#2563eb" stroke-width="3"/><text x="78" y="122" font-size="18">x1</text><circle cx="90" cy="185" r="28" fill="#dbeafe" stroke="#2563eb" stroke-width="3"/><text x="78" y="192" font-size="18">x2</text><circle cx="90" cy="255" r="28" fill="#dbeafe" stroke="#2563eb" stroke-width="3"/><text x="78" y="262" font-size="18">xn</text><circle cx="390" cy="185" r="68" fill="#fef3c7" stroke="#f59e0b" stroke-width="3"/><text x="320" y="193" font-size="20">Σ wi xi + b</text><rect x="575" y="135" width="135" height="100" rx="18" fill="#dcfce7" stroke="#16a34a" stroke-width="3"/><text x="608" y="193" font-size="20">activation</text><circle cx="830" cy="185" r="35" fill="#fee2e2" stroke="#dc2626" stroke-width="3"/><text x="822" y="192" font-size="20">y</text><line x1="120" y1="115" x2="325" y2="175" stroke="#475569" stroke-width="3" marker-end="url(#a)"/><line x1="120" y1="185" x2="320" y2="185" stroke="#475569" stroke-width="3" marker-end="url(#a)"/><line x1="120" y1="255" x2="325" y2="195" stroke="#475569" stroke-width="3" marker-end="url(#a)"/><line x1="460" y1="185" x2="570" y2="185" stroke="#475569" stroke-width="3" marker-end="url(#a)"/><line x1="713" y1="185" x2="792" y2="185" stroke="#475569" stroke-width="3" marker-end="url(#a)"/></g></svg>