<svg xmlns="http://www.w3.org/2000/svg" width="960" height="360" viewBox="0 0 960 360" role="img" aria-label="Unrolled recurrent neural network"><rect width="100%" height="100%" fill="#fff"/><defs><marker id="a" markerWidth="10" markerHeight="10" refX="9" refY="3" orient="auto"><path d="M0,0 L0,6 L9,3 z" fill="#475569"/></marker></defs><g font-family="Arial, sans-serif" fill="#0f172a"><text x="45" y="48" font-size="26" font-weight="700">RNN unrolled through time</text><rect x="105" y="145" width="105" height="80" rx="14" fill="#dbeafe" stroke="#2563eb" stroke-width="3"/><text x="127.5" y="192.0" font-size="20">h1</text><rect x="325" y="145" width="105" height="80" rx="14" fill="#dbeafe" stroke="#2563eb" stroke-width="3"/><text x="347.5" y="192.0" font-size="20">h2</text><rect x="545" y="145" width="105" height="80" rx="14" fill="#dbeafe" stroke="#2563eb" stroke-width="3"/><text x="567.5" y="192.0" font-size="20">h3</text><rect x="765" y="145" width="105" height="80" rx="14" fill="#dbeafe" stroke="#2563eb" stroke-width="3"/><text x="787.5" y="192.0" font-size="20">h4</text><line x1="212" y1="185" x2="320" y2="185" stroke="#475569" stroke-width="4" marker-end="url(#a)"/><line x1="432" y1="185" x2="540" y2="185" stroke="#475569" stroke-width="4" marker-end="url(#a)"/><line x1="652" y1="185" x2="760" y2="185" stroke="#475569" stroke-width="4" marker-end="url(#a)"/><text x="145" y="285" font-size="20">x1</text><text x="365" y="285" font-size="20">x2</text><text x="585" y="285" font-size="20">x3</text><text x="805" y="285" font-size="20">x4</text><line x1="160" y1="260" x2="160" y2="230" stroke="#475569" stroke-width="3" marker-end="url(#a)"/><line x1="380" y1="260" x2="380" y2="230" stroke="#475569" stroke-width="3" marker-end="url(#a)"/><line x1="600" y1="260" x2="600" y2="230" stroke="#475569" stroke-width="3" marker-end="url(#a)"/><line x1="820" y1="260" x2="820" y2="230" stroke="#475569" stroke-width="3" marker-end="url(#a)"/></g></svg>