<svg xmlns="http://www.w3.org/2000/svg" width="960" height="360" viewBox="0 0 960 360" role="img" aria-label="Restricted Boltzmann machine"><rect width="100%" height="100%" fill="#fff"/><g font-family="Arial, sans-serif" fill="#0f172a"><text x="50" y="50" font-size="26" font-weight="700">Restricted Boltzmann Machine</text><g stroke="#94a3b8" stroke-width="3"><line x1="220" y1="120" x2="610" y2="95"/><line x1="220" y1="120" x2="610" y2="155"/><line x1="220" y1="120" x2="610" y2="215"/><line x1="220" y1="190" x2="610" y2="95"/><line x1="220" y1="190" x2="610" y2="155"/><line x1="220" y1="190" x2="610" y2="215"/><line x1="220" y1="260" x2="610" y2="95"/><line x1="220" y1="260" x2="610" y2="155"/><line x1="220" y1="260" x2="610" y2="215"/></g><circle cx="220" cy="120" r="25" fill="#dbeafe" stroke="#2563eb" stroke-width="3"/><circle cx="220" cy="190" r="25" fill="#dbeafe" stroke="#2563eb" stroke-width="3"/><circle cx="220" cy="260" r="25" fill="#dbeafe" stroke="#2563eb" stroke-width="3"/><circle cx="610" cy="95" r="25" fill="#fef3c7" stroke="#f59e0b" stroke-width="3"/><circle cx="610" cy="155" r="25" fill="#fef3c7" stroke="#f59e0b" stroke-width="3"/><circle cx="610" cy="215" r="25" fill="#fef3c7" stroke="#f59e0b" stroke-width="3"/><text x="160" y="320" font-size="20">visible layer</text><text x="555" y="320" font-size="20">hidden layer</text></g></svg>