<svg xmlns="http://www.w3.org/2000/svg" width="960" height="360" viewBox="0 0 960 360" role="img" aria-label="Transformer self attention"><rect width="100%" height="100%" fill="#fff"/><g font-family="Arial, sans-serif" fill="#0f172a"><text x="50" y="50" font-size="26" font-weight="700">Transformer self-attention</text><circle cx="460" cy="135" r="72" fill="#fef3c7" stroke="#f59e0b" stroke-width="4"/><text x="405" y="132" font-size="24" font-weight="700">Self</text><text x="392" y="162" font-size="24" font-weight="700">Attention</text><rect x="100" y="245" width="95" height="55" rx="12" fill="#dbeafe" stroke="#2563eb" stroke-width="3"/><text x="128" y="280" font-size="20">The</text><rect x="250" y="245" width="95" height="55" rx="12" fill="#dbeafe" stroke="#2563eb" stroke-width="3"/><text x="272" y="280" font-size="20">cat</text><rect x="400" y="245" width="95" height="55" rx="12" fill="#dbeafe" stroke="#2563eb" stroke-width="3"/><text x="420" y="280" font-size="20">sat</text><rect x="550" y="245" width="95" height="55" rx="12" fill="#dbeafe" stroke="#2563eb" stroke-width="3"/><text x="565" y="280" font-size="20">on</text><rect x="700" y="245" width="95" height="55" rx="12" fill="#dbeafe" stroke="#2563eb" stroke-width="3"/><text x="721" y="280" font-size="20">mat</text><line x1="148" y1="244" x2="410" y2="180" stroke="#475569" stroke-width="3"/><line x1="298" y1="244" x2="430" y2="200" stroke="#475569" stroke-width="3"/><line x1="448" y1="244" x2="460" y2="208" stroke="#475569" stroke-width="3"/><line x1="598" y1="244" x2="490" y2="200" stroke="#475569" stroke-width="3"/><line x1="748" y1="244" x2="510" y2="180" stroke="#475569" stroke-width="3"/></g></svg>