<svg xmlns="http://www.w3.org/2000/svg" width="960" height="360" viewBox="0 0 960 360" role="img" aria-label="Universal approximation theorem"><rect width="100%" height="100%" fill="#fff"/><defs><marker id="a" markerWidth="10" markerHeight="10" refX="9" refY="3" orient="auto"><path d="M0,0 L0,6 L9,3 z" fill="#475569"/></marker></defs><g font-family="Arial, sans-serif" fill="#0f172a"><text x="45" y="48" font-size="26" font-weight="700">Universal Approximation Theorem</text><line x1="80" y1="290" x2="520" y2="290" stroke="#334155" stroke-width="3"/><line x1="80" y1="290" x2="80" y2="80" stroke="#334155" stroke-width="3"/><path d="M90 240 C150 90 220 95 285 220 S430 300 515 120" fill="none" stroke="#94a3b8" stroke-width="8" opacity="0.45"/><path d="M90 245 L130 178 L170 115 L210 100 L250 145 L290 220 L330 255 L370 265 L410 245 L450 190 L515 120" fill="none" stroke="#2563eb" stroke-width="4"/><text x="125" y="322" font-size="18">target function</text><text x="345" y="322" font-size="18" fill="#2563eb">network approximation</text><circle cx="680" cy="120" r="18" fill="#dbeafe" stroke="#2563eb" stroke-width="3"/><circle cx="680" cy="205" r="18" fill="#dbeafe" stroke="#2563eb" stroke-width="3"/><circle cx="775" cy="90" r="18" fill="#fef3c7" stroke="#f59e0b" stroke-width="3"/><circle cx="775" cy="150" r="18" fill="#fef3c7" stroke="#f59e0b" stroke-width="3"/><circle cx="775" cy="210" r="18" fill="#fef3c7" stroke="#f59e0b" stroke-width="3"/><circle cx="775" cy="270" r="18" fill="#fef3c7" stroke="#f59e0b" stroke-width="3"/><circle cx="870" cy="180" r="18" fill="#dcfce7" stroke="#16a34a" stroke-width="3"/></g></svg>