<svg xmlns="http://www.w3.org/2000/svg" width="960" height="360" viewBox="0 0 960 360" role="img" aria-label="Regression classification clustering"><rect width="100%" height="100%" fill="#fff"/><defs><marker id="a" markerWidth="10" markerHeight="10" refX="9" refY="3" orient="auto"><path d="M0,0 L0,6 L9,3 z" fill="#475569"/></marker></defs><g font-family="Arial, sans-serif" fill="#0f172a"><text x="90" y="50" font-size="24" font-weight="700">Regression</text><line x1="70" y1="285" x2="285" y2="95" stroke="#2563eb" stroke-width="5"/><circle cx="90" cy="260" r="8" fill="#0ea5e9"/><circle cx="145" cy="215" r="8" fill="#0ea5e9"/><circle cx="205" cy="165" r="8" fill="#0ea5e9"/><circle cx="255" cy="130" r="8" fill="#0ea5e9"/><text x="390" y="50" font-size="24" font-weight="700">Classification</text><line x1="385" y1="285" x2="595" y2="95" stroke="#334155" stroke-width="4"/><circle cx="420" cy="230" r="11" fill="#ef4444"/><circle cx="470" cy="255" r="11" fill="#ef4444"/><circle cx="510" cy="205" r="11" fill="#ef4444"/><circle cx="540" cy="135" r="11" fill="#22c55e"/><circle cx="585" cy="175" r="11" fill="#22c55e"/><text x="735" y="50" font-size="24" font-weight="700">Clustering</text><circle cx="745" cy="135" r="11" fill="#f97316"/><circle cx="785" cy="115" r="11" fill="#f97316"/><circle cx="820" cy="155" r="11" fill="#f97316"/><circle cx="725" cy="220" r="11" fill="#8b5cf6"/><circle cx="765" cy="250" r="11" fill="#8b5cf6"/><circle cx="870" cy="215" r="11" fill="#14b8a6"/><circle cx="905" cy="250" r="11" fill="#14b8a6"/></g></svg>