<?xml version="1.0" encoding="utf-8"?>
<!-- Generator: Adobe Illustrator 15.1.0, SVG Export Plug-In . SVG Version: 6.00 Build 0)  -->
<!DOCTYPE svg PUBLIC "-//W3C//DTD SVG 1.1//EN" "http://www.w3.org/Graphics/SVG/1.1/DTD/svg11.dtd">
<svg version="1.1" id="Layer_1" xmlns="http://www.w3.org/2000/svg" xmlns:xlink="http://www.w3.org/1999/xlink" x="0px" y="0px"
	 width="771.521px" height="516.558px" viewBox="0 0 771.521 516.558" enable-background="new 0 0 771.521 516.558"
	 xml:space="preserve">
<rect fill="#FFFFFF" width="771.521" height="516.558"/>
<polyline fill="none" stroke="#339963" stroke-width="8" stroke-miterlimit="10" points="135.465,14.238 757.479,14.136 
	757.521,127.517 135.465,127.517 "/>
<polyline fill="none" stroke="#0094BB" stroke-width="8" stroke-miterlimit="10" points="132.304,131.369 132.406,502.445 
	14.012,502.49 14.012,131.369 "/>
<g enable-background="new    ">
	<path fill="#339963" d="M171.514,45.899c0,4.751-2.735,9.971-10.079,9.971c-5.292,0-10.115-3.023-10.115-9.971
		c0-5.76,3.636-10.331,10.834-9.935C169.822,36.396,171.514,42.479,171.514,45.899z M157.836,42.191
		c-0.684,1.08-0.936,2.376-0.936,3.672c0,2.987,1.44,5.615,4.536,5.615c2.988,0,4.463-2.412,4.463-5.363
		c0-2.088-0.504-3.708-1.548-4.716c-1.152-1.079-2.448-1.115-3.24-1.044C159.528,40.463,158.592,41.003,157.836,42.191z"/>
	<path fill="#339963" d="M176.989,34.668c0-0.937,0.072-2.196,0.792-3.204c0.684-0.936,2.231-1.907,4.823-1.907
		c1.116,0,2.232,0.18,3.312,0.323v4.14h-1.332c-2.088,0-2.196,0.433-2.16,2.952h3.708v3.383h-3.671V55.33h-5.507V40.355h-2.952
		v-3.383h2.988V34.668z"/>
	<path fill="#339963" d="M190.704,34.668c0-0.937,0.072-2.196,0.792-3.204c0.684-0.936,2.231-1.907,4.823-1.907
		c1.116,0,2.232,0.18,3.312,0.323v4.14h-1.332c-2.087,0-2.195,0.433-2.16,2.952h3.708v3.383h-3.671V55.33h-5.507V40.355h-2.952
		v-3.383h2.988V34.668z"/>
	<path fill="#339963" d="M221.086,50.542c-0.648,0.972-1.296,1.907-2.268,2.808c-1.62,1.512-4.067,2.663-7.091,2.663
		c-5.58,0-9.503-3.563-9.503-9.719c0-4.535,2.232-10.366,9.647-10.366c1.116,0,4.355,0.107,6.767,2.699
		c2.448,2.628,2.591,6.3,2.664,8.423h-13.426c-0.036,2.34,1.296,4.68,4.283,4.68c3.024,0,4.068-1.979,4.751-3.312L221.086,50.542z
		 M215.579,43.595c-0.108-0.792-0.252-1.836-1.044-2.664c-0.684-0.684-1.728-1.044-2.7-1.044c-1.332,0-2.268,0.648-2.808,1.225
		c-0.756,0.827-0.936,1.691-1.116,2.483H215.579z"/>
	<path fill="#339963" d="M230.807,38.484c1.224-1.044,2.556-1.872,5.436-2.16v4.896l-1.836,0.288
		c-2.664,0.468-3.456,0.864-3.456,3.239V55.33h-5.543V36.504h5.399V38.484z"/>
	<path fill="#339963" d="M240.923,48.995c1.512,1.476,3.384,2.592,5.472,2.592c1.332,0,3.347-0.433,3.347-1.836
		c0-0.648-0.396-0.9-0.72-1.08c-0.828-0.432-2.124-0.54-3.204-0.72c-0.828-0.145-1.692-0.324-2.52-0.576
		c-1.152-0.324-2.304-0.792-3.132-1.62c-0.828-0.827-1.404-2.123-1.404-3.527c0-3.096,2.664-6.299,7.919-6.299
		c4.428,0,7.091,1.907,8.387,2.808l-3.42,3.167c-1.764-1.367-3.419-1.871-4.715-1.871c-2.16,0-2.664,0.863-2.664,1.403
		c0,1.08,1.188,1.296,2.988,1.62c3.779,0.684,8.171,1.691,8.171,6.155c0,4.428-4.463,6.587-8.891,6.587
		c-5.219,0-7.919-2.52-9.106-3.636L240.923,48.995z"/>
</g>
<g enable-background="new    ">
	<path fill="#0094BB" d="M37.696,477.398c-0.576-0.539-1.008-0.899-1.476-1.871c-0.36-0.863-0.685-2.088-0.685-3.42
		c0-1.115,0.216-2.375,0.756-3.348c1.044-1.979,2.736-2.483,5.651-2.483h12.851v5.507H44.211c-1.691,0-2.304,0.037-2.808,0.252
		c-1.008,0.433-1.439,1.404-1.439,2.484c0,2.916,2.34,2.916,4.68,2.916h10.15v5.543H36.04v-5.58H37.696z"/>
	<path fill="#0094BB" d="M45.363,441.437c4.751,0,9.971,2.734,9.971,10.078c0,5.291-3.023,10.115-9.971,10.115
		c-5.76,0-10.331-3.637-9.935-10.835C35.86,443.128,41.943,441.437,45.363,441.437z M41.655,455.115
		c1.08,0.684,2.376,0.936,3.672,0.936c2.987,0,5.615-1.439,5.615-4.535c0-2.988-2.412-4.463-5.363-4.463
		c-2.088,0-3.708,0.504-4.716,1.547c-1.079,1.152-1.115,2.448-1.044,3.24C39.928,453.423,40.468,454.359,41.655,455.115z"/>
	<path fill="#0094BB" d="M37.948,431.535c-1.044-1.224-1.872-2.555-2.16-5.436h4.896l0.288,1.836
		c0.468,2.664,0.864,3.456,3.239,3.456h10.583v5.544H35.969v-5.4H37.948z"/>
	<path fill="#0094BB" d="M37.984,416.955c-0.756-0.647-2.448-2.088-2.448-5.327c0-3.096,1.152-4.212,2.196-5.22
		c-0.9-1.08-2.196-2.592-2.196-5.578c0-3.096,1.548-4.68,2.7-5.256c1.008-0.469,2.304-0.504,4.319-0.504h12.238v5.471h-9.862
		c-1.08,0-2.484,0-3.204,0.217c-1.584,0.504-1.691,1.979-1.691,2.411c0,0.54,0.144,1.26,0.575,1.8
		c0.828,1.044,1.908,1.044,3.96,1.044h10.223v5.472H43.671c-0.827,0-1.943,0.035-2.663,0.539c-0.576,0.433-0.972,1.26-0.972,2.16
		c0,0.432,0.107,1.008,0.432,1.512c0.828,1.225,2.34,1.26,3.636,1.26h10.69v5.472H36.04v-5.472H37.984z"/>
	<path fill="#0094BB" d="M48.459,388.191c1.476-1.512,2.592-3.385,2.592-5.473c0-1.331-0.433-3.347-1.836-3.347
		c-0.648,0-0.9,0.396-1.08,0.72c-0.432,0.828-0.54,2.123-0.72,3.203c-0.145,0.828-0.324,1.692-0.576,2.52
		c-0.324,1.152-0.792,2.305-1.62,3.133c-0.827,0.827-2.123,1.403-3.527,1.403c-3.096,0-6.299-2.663-6.299-7.919
		c0-4.428,1.907-7.092,2.808-8.387l3.167,3.42c-1.367,1.764-1.871,3.419-1.871,4.715c0,2.16,0.863,2.664,1.403,2.664
		c1.08,0,1.296-1.188,1.62-2.988c0.684-3.779,1.691-8.171,6.155-8.171c4.428,0,6.587,4.464,6.587,8.892
		c0,5.219-2.52,7.918-3.636,9.105L48.459,388.191z"/>
</g>
<path fill="#6DA69F" d="M261.403,256.023H143.34V137.96h118.035L261.403,256.023z M150.832,248.531h103.077l-0.024-103.078H150.832
	V248.531z"/>
<polygon fill="#339963" points="268.32,256.023 268.32,137.96 386.354,137.96 386.382,256.023 "/>
<path fill="#6DA69F" d="M261.433,381.099H143.34V263.007h118.064L261.433,381.099z M150.834,373.605h103.103l-0.025-103.104H150.834
	V373.605z"/>
<path fill="#6DA69F" d="M261.433,506.117H143.34v-118.09h118.064L261.433,506.117z M150.834,498.623h103.103l-0.025-103.104H150.834
	V498.623z"/>
<path fill="#6DA69F" d="M386.382,381.099H268.29V263.007h118.064L386.382,381.099z M275.784,373.605h103.103l-0.025-103.104H275.784
	V373.605z"/>
<path fill="#6DA69F" d="M386.382,506.117H268.29v-118.09h118.064L386.382,506.117z M275.784,498.623h103.103l-0.025-103.104H275.784
	V498.623z"/>
<path fill="#6DA69F" d="M511.362,506.117H393.271v-118.09h118.062L511.362,506.117z M400.764,498.623h103.104l-0.025-103.104
	H400.764V498.623z"/>
<polygon fill="#007A5E" points="393.301,256.023 393.301,137.96 511.335,137.96 511.362,256.023 "/>
<polygon fill="#007B78" points="518.281,256.023 518.281,137.96 636.315,137.96 636.343,256.023 "/>
<polygon fill="#007A5E" points="393.301,381.07 393.301,263.007 511.335,263.007 511.362,381.07 "/>
<polygon fill="#007B78" points="518.281,381.07 518.281,263.007 636.315,263.007 636.343,381.07 "/>
<polygon fill="#007B78" points="518.281,506.117 518.281,388.056 636.315,388.056 636.343,506.117 "/>
<polygon fill="#0094BB" points="643.262,256.023 643.262,137.96 761.296,137.96 761.324,256.023 "/>
<polygon fill="#0094BB" points="643.262,381.07 643.262,263.007 761.296,263.007 761.324,381.07 "/>
<polygon fill="#0094BB" points="643.262,506.117 643.262,388.056 761.296,388.056 761.324,506.117 "/>
<g>
	
		<rect x="14.012" y="14.136" fill="none" stroke="#6DA69F" stroke-width="8" stroke-miterlimit="10" width="118.3" height="113.383"/>
	<g>
		<path fill="#6DA69F" d="M77.827,51.326h10.25v34.742h-10.25v-3.326c-0.999,1.131-1.598,1.797-3.461,2.729
			c-2.062,1.064-4.326,1.598-6.589,1.598c-2.262,0-6.456-0.334-8.85-3.66c-1.797-2.529-2.13-4.594-2.13-10.25V51.326h10.316v21.566
			c0,1.529,0,3.061,0.796,4.125c0.601,0.799,1.998,1.73,4.061,1.73c0.6,0,1.997,0,3.528-0.865c2.197-1.33,2.263-3.062,2.33-4.924
			L77.827,51.326L77.827,51.326z"/>
	</g>
	<path fill="#6DA69F" d="M88.076,94.71c0,2.738-2.219,4.957-4.954,4.957c-2.737,0-4.955-2.219-4.955-4.957
		c0-2.734,2.218-4.953,4.955-4.953C85.857,89.757,88.076,91.976,88.076,94.71z"/>
</g>
<g enable-background="new    ">
	<path fill="#339963" d="M674.683,95.845h4.17v13.47h1.199v2.789h-1.199v3.78h-3.21v-3.78h-6.06v-2.789L674.683,95.845z
		 M675.643,109.315l0.24-9.96l-3.36,9.96H675.643z"/>
	<path fill="#339963" d="M682.933,100.915c0-1.319,0.061-2.369,0.779-3.39c0.99-1.41,2.67-1.859,4.23-1.859
		c5.1,0,5.1,3.689,5.1,4.919v10.74c0,1.08-0.21,2.609-1.439,3.72c-1.2,1.08-2.73,1.109-3.51,1.109c-5.16,0-5.16-3.479-5.16-4.919
		V100.915z M686.382,111.594c0,0.48,0,1.86,1.561,1.86c1.65,0,1.65-1.351,1.65-2.101v-10.829c0-1.05,0-2.25-1.561-2.25
		c-1.65,0-1.65,1.26-1.65,2.1V111.594z"/>
	<path fill="#339963" d="M698.202,94.706h2.939l-3.869,21.179h-2.971L698.202,94.706z"/>
</g>
<g enable-background="new    ">
	<path fill="#0094BB" d="M707.743,101.245c0-2.1,0-2.909-1.53-2.909c-1.681,0-1.681,1.26-1.681,1.979v3.93
		c0.601-0.479,1.531-1.229,3.181-1.229c3.51,0,3.51,3.21,3.51,3.869v4.65c0,1.05,0,4.619-5.04,4.619c-1.08,0-2.43-0.21-3.449-0.93
		c-1.62-1.14-1.62-2.79-1.62-3.75v-11.459c0-3.6,2.88-4.35,5.159-4.35c0.93,0,2.041,0.149,3,0.659c1.77,0.9,1.77,2.311,1.77,4.92
		H707.743z M704.532,111.115c0,0.84,0,2.31,1.681,2.31c1.56,0,1.56-1.29,1.56-1.8v-3.6c0-0.9,0-2.16-1.56-2.16
		c-1.681,0-1.681,1.47-1.681,1.979V111.115z"/>
	<path fill="#0094BB" d="M714.192,100.915c0-1.319,0.061-2.369,0.78-3.39c0.989-1.41,2.67-1.859,4.229-1.859
		c5.1,0,5.1,3.689,5.1,4.919v10.74c0,1.08-0.209,2.609-1.439,3.72c-1.199,1.08-2.73,1.109-3.51,1.109c-5.16,0-5.16-3.479-5.16-4.919
		V100.915z M717.643,111.594c0,0.48,0,1.86,1.56,1.86c1.65,0,1.65-1.351,1.65-2.101v-10.829c0-1.05,0-2.25-1.561-2.25
		c-1.649,0-1.649,1.26-1.649,2.1V111.594z"/>
</g>
<g enable-background="new    ">
	<path fill="#339963" d="M546.597,95.935h9.27v3h-6.479l-0.061,4.109c0.689-0.479,1.5-1.05,2.939-1.05c1.35,0,2.19,0.48,2.7,0.96
		c1.14,0.99,1.2,2.25,1.2,3.33v4.95c0,1.71-0.27,4.919-5.01,4.919c-0.811,0-2.52-0.119-3.66-0.989c-1.32-1.021-1.47-2.67-1.47-3.42
		v-2.07h3.42v2.04c0,0.42,0,1.71,1.56,1.71c0.63,0,1.62-0.12,1.62-1.8v-4.77c0-0.87,0.03-2.25-1.56-2.25
		c-1.17,0-1.74,0.81-1.95,2.04h-2.729L546.597,95.935z"/>
	<path fill="#339963" d="M559.167,100.915c0-1.319,0.061-2.369,0.779-3.39c0.99-1.41,2.67-1.859,4.23-1.859
		c5.1,0,5.1,3.689,5.1,4.919v10.74c0,1.08-0.21,2.609-1.439,3.72c-1.2,1.08-2.73,1.109-3.51,1.109c-5.16,0-5.16-3.479-5.16-4.919
		V100.915z M562.616,111.594c0,0.48,0,1.86,1.561,1.86c1.65,0,1.65-1.351,1.65-2.101v-10.829c0-1.05,0-2.25-1.561-2.25
		c-1.65,0-1.65,1.26-1.65,2.1V111.594z"/>
	<path fill="#339963" d="M574.437,94.706h2.939l-3.869,21.179h-2.971L574.437,94.706z"/>
</g>
<g enable-background="new    ">
	<path fill="#0094BB" d="M577.856,95.935h9.27v3h-6.479l-0.061,4.109c0.689-0.479,1.5-1.05,2.939-1.05c1.35,0,2.19,0.48,2.7,0.96
		c1.14,0.99,1.2,2.25,1.2,3.33v4.95c0,1.71-0.27,4.919-5.01,4.919c-0.811,0-2.52-0.119-3.66-0.989c-1.32-1.021-1.47-2.67-1.47-3.42
		v-2.07h3.42v2.04c0,0.42,0,1.71,1.56,1.71c0.63,0,1.62-0.12,1.62-1.8v-4.77c0-0.87,0.03-2.25-1.56-2.25
		c-1.17,0-1.74,0.81-1.95,2.04h-2.729L577.856,95.935z"/>
	<path fill="#0094BB" d="M590.427,100.915c0-1.319,0.061-2.369,0.779-3.39c0.99-1.41,2.67-1.859,4.23-1.859
		c5.1,0,5.1,3.689,5.1,4.919v10.74c0,1.08-0.21,2.609-1.439,3.72c-1.2,1.08-2.73,1.109-3.51,1.109c-5.16,0-5.16-3.479-5.16-4.919
		V100.915z M593.876,111.594c0,0.48,0,1.86,1.561,1.86c1.65,0,1.65-1.351,1.65-2.101v-10.829c0-1.05,0-2.25-1.561-2.25
		c-1.65,0-1.65,1.26-1.65,2.1V111.594z"/>
</g>
<g enable-background="new    ">
	<path fill="#339963" d="M175.301,99.145c0.39-0.09,1.23-0.3,2.49-1.29c0.78-0.6,1.11-1.11,1.68-1.92h2.34v19.949h-3.51v-15.239
		c-0.36,0.33-1.05,0.93-3,1.26V99.145z"/>
	<path fill="#339963" d="M184.458,100.915c0-1.319,0.06-2.369,0.78-3.39c0.99-1.41,2.67-1.859,4.23-1.859c5.1,0,5.1,3.689,5.1,4.919
		v10.74c0,1.08-0.21,2.609-1.44,3.72c-1.2,1.08-2.73,1.109-3.51,1.109c-5.16,0-5.16-3.479-5.16-4.919V100.915z M187.907,111.594
		c0,0.48,0,1.86,1.56,1.86c1.65,0,1.65-1.351,1.65-2.101v-10.829c0-1.05,0-2.25-1.56-2.25c-1.65,0-1.65,1.26-1.65,2.1V111.594z"/>
	<path fill="#339963" d="M196.337,100.915c0-1.319,0.06-2.369,0.78-3.39c0.99-1.41,2.67-1.859,4.23-1.859c5.1,0,5.1,3.689,5.1,4.919
		v10.74c0,1.08-0.21,2.609-1.44,3.72c-1.2,1.08-2.73,1.109-3.51,1.109c-5.16,0-5.16-3.479-5.16-4.919V100.915z M199.787,111.594
		c0,0.48,0,1.86,1.56,1.86c1.65,0,1.65-1.351,1.65-2.101v-10.829c0-1.05,0-2.25-1.56-2.25c-1.65,0-1.65,1.26-1.65,2.1V111.594z"/>
	<path fill="#339963" d="M211.607,94.706h2.94l-3.87,21.179h-2.97L211.607,94.706z"/>
</g>
<g enable-background="new    ">
	<path fill="#0094BB" d="M217.871,100.915c0-1.319,0.06-2.369,0.78-3.39c0.99-1.41,2.67-1.859,4.23-1.859c5.1,0,5.1,3.689,5.1,4.919
		v10.74c0,1.08-0.21,2.609-1.44,3.72c-1.2,1.08-2.73,1.109-3.51,1.109c-5.16,0-5.16-3.479-5.16-4.919V100.915z M221.321,111.594
		c0,0.48,0,1.86,1.56,1.86c1.65,0,1.65-1.351,1.65-2.101v-10.829c0-1.05,0-2.25-1.56-2.25c-1.65,0-1.65,1.26-1.65,2.1V111.594z"/>
</g>
<g enable-background="new    ">
	<path fill="#6DA69F" d="M177.51,192.706c0-2.134,0.097-3.831,1.261-5.48c1.601-2.278,4.316-3.006,6.837-3.006
		c8.244,0,8.244,5.964,8.244,7.952v17.36c0,1.746-0.339,4.219-2.328,6.014c-1.939,1.745-4.413,1.794-5.673,1.794
		c-8.341,0-8.341-5.625-8.341-7.953V192.706z M183.087,209.968c0,0.776,0,3.007,2.521,3.007c2.667,0,2.667-2.183,2.667-3.395
		v-17.506c0-1.697,0-3.637-2.521-3.637c-2.667,0-2.667,2.036-2.667,3.395V209.968z"/>
	<path fill="#6DA69F" d="M202.194,182.667h4.752l-6.255,34.235h-4.801L202.194,182.667z"/>
	<path fill="#6DA69F" d="M208.838,192.706c0-2.134,0.097-3.831,1.261-5.48c1.601-2.278,4.316-3.006,6.837-3.006
		c8.244,0,8.244,5.964,8.244,7.952v17.36c0,1.746-0.339,4.219-2.328,6.014c-1.939,1.745-4.413,1.794-5.673,1.794
		c-8.341,0-8.341-5.625-8.341-7.953V192.706z M214.415,209.968c0,0.776,0,3.007,2.521,3.007c2.667,0,2.667-2.183,2.667-3.395
		v-17.506c0-1.697,0-3.637-2.521-3.637c-2.667,0-2.667,2.036-2.667,3.395V209.968z"/>
</g>
<g enable-background="new    ">
	<path fill="#FFFFFF" d="M281.927,208.223h5.577c0,2.085,0,2.327,0.048,2.764c0.049,0.582,0.194,2.085,2.522,2.085
		c2.715,0,2.715-1.648,2.715-3.491v-6.11c-1.358,1.019-2.57,1.892-4.897,1.892c-4.122,0-5.965-2.328-5.965-5.625v-7.953
		c0-5.237,2.57-7.564,8.438-7.564c6.256,0,7.953,3.297,7.953,7.08v18.718c0,5.965-4.316,7.322-8.486,7.322
		c-5.528,0-7.904-2.765-7.904-6.547V208.223z M287.504,197.409c0,1.504,0,3.491,2.521,3.491c2.764,0,2.764-1.987,2.764-3.491v-5.916
		c0-1.212-0.242-3.007-2.57-3.007c-2.716,0-2.716,2.037-2.716,3.298V197.409z"/>
	<path fill="#FFFFFF" d="M303.313,192.706c0-2.134,0.097-3.831,1.261-5.48c1.601-2.278,4.316-3.006,6.837-3.006
		c8.244,0,8.244,5.964,8.244,7.952v17.36c0,1.746-0.339,4.219-2.328,6.014c-1.939,1.745-4.413,1.794-5.673,1.794
		c-8.341,0-8.341-5.625-8.341-7.953V192.706z M308.89,209.968c0,0.776,0,3.007,2.521,3.007c2.667,0,2.667-2.183,2.667-3.395v-17.506
		c0-1.697,0-3.637-2.521-3.637c-2.667,0-2.667,2.036-2.667,3.395V209.968z"/>
	<path fill="#FFFFFF" d="M327.997,182.667h4.752l-6.255,34.235h-4.801L327.997,182.667z"/>
	<path fill="#FFFFFF" d="M335.562,189.844c0.63-0.146,1.988-0.485,4.025-2.085c1.261-0.971,1.794-1.795,2.715-3.104h3.783v32.247
		h-5.674v-24.634c-0.582,0.533-1.697,1.503-4.849,2.036V189.844z"/>
	<path fill="#FFFFFF" d="M350.364,192.706c0-2.134,0.097-3.831,1.261-5.48c1.6-2.278,4.316-3.006,6.837-3.006
		c8.244,0,8.244,5.964,8.244,7.952v17.36c0,1.746-0.339,4.219-2.328,6.014c-1.939,1.745-4.413,1.794-5.673,1.794
		c-8.341,0-8.341-5.625-8.341-7.953V192.706z M355.941,209.968c0,0.776,0,3.007,2.521,3.007c2.667,0,2.667-2.183,2.667-3.395
		v-17.506c0-1.697,0-3.637-2.521-3.637c-2.667,0-2.667,2.036-2.667,3.395V209.968z"/>
</g>
<g enable-background="new    ">
	<path fill="#FFFFFF" d="M418.653,193.239c0-3.395,0-4.704-2.473-4.704c-2.716,0-2.716,2.037-2.716,3.2v6.353
		c0.97-0.775,2.474-1.988,5.14-1.988c5.674,0,5.674,5.189,5.674,6.256v7.517c0,1.697,0,7.468-8.146,7.468
		c-1.746,0-3.928-0.34-5.576-1.503c-2.619-1.843-2.619-4.51-2.619-6.062V191.25c0-5.819,4.656-7.031,8.341-7.031
		c1.503,0,3.298,0.242,4.85,1.066c2.86,1.455,2.86,3.734,2.86,7.953H418.653z M413.465,209.193c0,1.357,0,3.733,2.716,3.733
		c2.521,0,2.521-2.085,2.521-2.909v-5.819c0-1.455,0-3.491-2.521-3.491c-2.716,0-2.716,2.376-2.716,3.2V209.193z"/>
	<path fill="#FFFFFF" d="M429.08,192.706c0-2.134,0.097-3.831,1.261-5.48c1.601-2.278,4.316-3.006,6.838-3.006
		c8.243,0,8.243,5.964,8.243,7.952v17.36c0,1.746-0.339,4.219-2.327,6.014c-1.939,1.745-4.413,1.794-5.674,1.794
		c-8.341,0-8.341-5.625-8.341-7.953V192.706z M434.657,209.968c0,0.776,0,3.007,2.521,3.007c2.666,0,2.666-2.183,2.666-3.395
		v-17.506c0-1.697,0-3.637-2.521-3.637c-2.666,0-2.666,2.036-2.666,3.395V209.968z"/>
	<path fill="#FFFFFF" d="M453.764,182.667h4.753l-6.256,34.235h-4.801L453.764,182.667z"/>
	<path fill="#FFFFFF" d="M468.312,184.51h6.74v21.772h1.94v4.51h-1.94v6.11h-5.188v-6.11h-9.795v-4.51L468.312,184.51z
		 M469.864,206.283l0.388-16.1l-5.431,16.1H469.864z"/>
	<path fill="#FFFFFF" d="M481.648,192.706c0-2.134,0.097-3.831,1.261-5.48c1.601-2.278,4.316-3.006,6.838-3.006
		c8.243,0,8.243,5.964,8.243,7.952v17.36c0,1.746-0.339,4.219-2.327,6.014c-1.939,1.745-4.413,1.794-5.674,1.794
		c-8.341,0-8.341-5.625-8.341-7.953V192.706z M487.226,209.968c0,0.776,0,3.007,2.521,3.007c2.666,0,2.666-2.183,2.666-3.395
		v-17.506c0-1.697,0-3.637-2.521-3.637c-2.666,0-2.666,2.036-2.666,3.395V209.968z"/>
</g>
<g enable-background="new    ">
	<path fill="#FFFFFF" d="M418.653,314.473c0-3.395,0-4.704-2.473-4.704c-2.716,0-2.716,2.037-2.716,3.2v6.353
		c0.97-0.775,2.474-1.988,5.14-1.988c5.674,0,5.674,5.189,5.674,6.256v7.517c0,1.697,0,7.468-8.146,7.468
		c-1.746,0-3.928-0.34-5.576-1.503c-2.619-1.843-2.619-4.51-2.619-6.062v-18.524c0-5.819,4.656-7.031,8.341-7.031
		c1.503,0,3.298,0.242,4.85,1.066c2.86,1.455,2.86,3.734,2.86,7.953H418.653z M413.465,330.427c0,1.357,0,3.733,2.716,3.733
		c2.521,0,2.521-2.085,2.521-2.909v-5.819c0-1.455,0-3.491-2.521-3.491c-2.716,0-2.716,2.376-2.716,3.2V330.427z"/>
	<path fill="#FFFFFF" d="M429.08,313.94c0-2.134,0.097-3.831,1.261-5.48c1.601-2.278,4.316-3.006,6.838-3.006
		c8.243,0,8.243,5.964,8.243,7.952v17.36c0,1.746-0.339,4.219-2.327,6.014c-1.939,1.745-4.413,1.794-5.674,1.794
		c-8.341,0-8.341-5.625-8.341-7.953V313.94z M434.657,331.203c0,0.776,0,3.007,2.521,3.007c2.666,0,2.666-2.183,2.666-3.395v-17.506
		c0-1.697,0-3.637-2.521-3.637c-2.666,0-2.666,2.036-2.666,3.395V331.203z"/>
	<path fill="#FFFFFF" d="M453.764,303.902h4.753l-6.256,34.235h-4.801L453.764,303.902z"/>
	<path fill="#FFFFFF" d="M468.312,305.745h6.74v21.772h1.94v4.51h-1.94v6.11h-5.188v-6.11h-9.795v-4.51L468.312,305.745z
		 M469.864,327.517l0.388-16.1l-5.431,16.1H469.864z"/>
	<path fill="#FFFFFF" d="M481.648,313.94c0-2.134,0.097-3.831,1.261-5.48c1.601-2.278,4.316-3.006,6.838-3.006
		c8.243,0,8.243,5.964,8.243,7.952v17.36c0,1.746-0.339,4.219-2.327,6.014c-1.939,1.745-4.413,1.794-5.674,1.794
		c-8.341,0-8.341-5.625-8.341-7.953V313.94z M487.226,331.203c0,0.776,0,3.007,2.521,3.007c2.666,0,2.666-2.183,2.666-3.395v-17.506
		c0-1.697,0-3.637-2.521-3.637c-2.666,0-2.666,2.036-2.666,3.395V331.203z"/>
</g>
<g enable-background="new    ">
	<path fill="#FFFFFF" d="M533.528,184.656h14.984v4.849h-10.475l-0.098,6.644c1.115-0.775,2.425-1.697,4.752-1.697
		c2.183,0,3.541,0.776,4.365,1.552c1.842,1.601,1.939,3.637,1.939,5.383v8.001c0,2.765-0.437,7.953-8.099,7.953
		c-1.31,0-4.073-0.194-5.916-1.601c-2.134-1.648-2.376-4.315-2.376-5.528v-3.346h5.528v3.298c0,0.679,0,2.764,2.521,2.764
		c1.019,0,2.618-0.193,2.618-2.909v-7.711c0-1.406,0.049-3.637-2.521-3.637c-1.891,0-2.812,1.31-3.152,3.298h-4.412L533.528,184.656
		z"/>
	<path fill="#FFFFFF" d="M553.847,192.706c0-2.134,0.098-3.831,1.261-5.48c1.601-2.278,4.315-3.006,6.837-3.006
		c8.244,0,8.244,5.964,8.244,7.952v17.36c0,1.746-0.34,4.219-2.328,6.014c-1.939,1.745-4.412,1.794-5.673,1.794
		c-8.341,0-8.341-5.625-8.341-7.953V192.706z M559.423,209.968c0,0.776,0,3.007,2.521,3.007c2.668,0,2.668-2.183,2.668-3.395
		v-17.506c0-1.697,0-3.637-2.521-3.637c-2.668,0-2.668,2.036-2.668,3.395V209.968z"/>
	<path fill="#FFFFFF" d="M578.53,182.667h4.752l-6.255,34.235h-4.801L578.53,182.667z"/>
	<path fill="#FFFFFF" d="M586.097,184.656h14.984v4.849h-10.475l-0.098,6.644c1.115-0.775,2.425-1.697,4.752-1.697
		c2.183,0,3.541,0.776,4.365,1.552c1.842,1.601,1.939,3.637,1.939,5.383v8.001c0,2.765-0.437,7.953-8.099,7.953
		c-1.31,0-4.073-0.194-5.916-1.601c-2.134-1.648-2.376-4.315-2.376-5.528v-3.346h5.528v3.298c0,0.679,0,2.764,2.521,2.764
		c1.019,0,2.618-0.193,2.618-2.909v-7.711c0-1.406,0.049-3.637-2.521-3.637c-1.891,0-2.812,1.31-3.152,3.298h-4.412L586.097,184.656
		z"/>
	<path fill="#FFFFFF" d="M606.415,192.706c0-2.134,0.098-3.831,1.261-5.48c1.601-2.278,4.315-3.006,6.837-3.006
		c8.244,0,8.244,5.964,8.244,7.952v17.36c0,1.746-0.34,4.219-2.328,6.014c-1.939,1.745-4.412,1.794-5.673,1.794
		c-8.341,0-8.341-5.625-8.341-7.953V192.706z M611.991,209.968c0,0.776,0,3.007,2.521,3.007c2.668,0,2.668-2.183,2.668-3.395
		v-17.506c0-1.697,0-3.637-2.521-3.637c-2.668,0-2.668,2.036-2.668,3.395V209.968z"/>
</g>
<g enable-background="new    ">
	<path fill="#FFFFFF" d="M533.528,305.89h14.984v4.849h-10.475l-0.098,6.644c1.115-0.775,2.425-1.697,4.752-1.697
		c2.183,0,3.541,0.776,4.365,1.552c1.842,1.601,1.939,3.637,1.939,5.383v8.001c0,2.765-0.437,7.953-8.099,7.953
		c-1.31,0-4.073-0.194-5.916-1.601c-2.134-1.648-2.376-4.315-2.376-5.528v-3.346h5.528v3.298c0,0.679,0,2.764,2.521,2.764
		c1.019,0,2.618-0.193,2.618-2.909v-7.711c0-1.406,0.049-3.637-2.521-3.637c-1.891,0-2.812,1.31-3.152,3.298h-4.412L533.528,305.89z
		"/>
	<path fill="#FFFFFF" d="M553.847,313.94c0-2.134,0.098-3.831,1.261-5.48c1.601-2.278,4.315-3.006,6.837-3.006
		c8.244,0,8.244,5.964,8.244,7.952v17.36c0,1.746-0.34,4.219-2.328,6.014c-1.939,1.745-4.412,1.794-5.673,1.794
		c-8.341,0-8.341-5.625-8.341-7.953V313.94z M559.423,331.203c0,0.776,0,3.007,2.521,3.007c2.668,0,2.668-2.183,2.668-3.395v-17.506
		c0-1.697,0-3.637-2.521-3.637c-2.668,0-2.668,2.036-2.668,3.395V331.203z"/>
	<path fill="#FFFFFF" d="M578.53,303.902h4.752l-6.255,34.235h-4.801L578.53,303.902z"/>
	<path fill="#FFFFFF" d="M586.097,305.89h14.984v4.849h-10.475l-0.098,6.644c1.115-0.775,2.425-1.697,4.752-1.697
		c2.183,0,3.541,0.776,4.365,1.552c1.842,1.601,1.939,3.637,1.939,5.383v8.001c0,2.765-0.437,7.953-8.099,7.953
		c-1.31,0-4.073-0.194-5.916-1.601c-2.134-1.648-2.376-4.315-2.376-5.528v-3.346h5.528v3.298c0,0.679,0,2.764,2.521,2.764
		c1.019,0,2.618-0.193,2.618-2.909v-7.711c0-1.406,0.049-3.637-2.521-3.637c-1.891,0-2.812,1.31-3.152,3.298h-4.412L586.097,305.89z
		"/>
	<path fill="#FFFFFF" d="M606.415,313.94c0-2.134,0.098-3.831,1.261-5.48c1.601-2.278,4.315-3.006,6.837-3.006
		c8.244,0,8.244,5.964,8.244,7.952v17.36c0,1.746-0.34,4.219-2.328,6.014c-1.939,1.745-4.412,1.794-5.673,1.794
		c-8.341,0-8.341-5.625-8.341-7.953V313.94z M611.991,331.203c0,0.776,0,3.007,2.521,3.007c2.668,0,2.668-2.183,2.668-3.395v-17.506
		c0-1.697,0-3.637-2.521-3.637c-2.668,0-2.668,2.036-2.668,3.395V331.203z"/>
</g>
<g enable-background="new    ">
	<path fill="#FFFFFF" d="M666.133,184.51h6.74v21.772h1.94v4.51h-1.94v6.11h-5.188v-6.11h-9.795v-4.51L666.133,184.51z
		 M667.685,206.283l0.388-16.1l-5.431,16.1H667.685z"/>
	<path fill="#FFFFFF" d="M679.469,192.706c0-2.134,0.097-3.831,1.261-5.48c1.601-2.278,4.316-3.006,6.838-3.006
		c8.243,0,8.243,5.964,8.243,7.952v17.36c0,1.746-0.339,4.219-2.327,6.014c-1.939,1.745-4.413,1.794-5.674,1.794
		c-8.341,0-8.341-5.625-8.341-7.953V192.706z M685.046,209.968c0,0.776,0,3.007,2.521,3.007c2.666,0,2.666-2.183,2.666-3.395
		v-17.506c0-1.697,0-3.637-2.521-3.637c-2.666,0-2.666,2.036-2.666,3.395V209.968z"/>
	<path fill="#FFFFFF" d="M704.152,182.667h4.753l-6.256,34.235h-4.801L704.152,182.667z"/>
	<path fill="#FFFFFF" d="M721.61,193.239c0-3.395,0-4.704-2.473-4.704c-2.716,0-2.716,2.037-2.716,3.2v6.353
		c0.97-0.775,2.474-1.988,5.14-1.988c5.674,0,5.674,5.189,5.674,6.256v7.517c0,1.697,0,7.468-8.146,7.468
		c-1.746,0-3.928-0.34-5.576-1.503c-2.619-1.843-2.619-4.51-2.619-6.062V191.25c0-5.819,4.656-7.031,8.341-7.031
		c1.503,0,3.298,0.242,4.85,1.066c2.86,1.455,2.86,3.734,2.86,7.953H721.61z M716.422,209.193c0,1.357,0,3.733,2.716,3.733
		c2.521,0,2.521-2.085,2.521-2.909v-5.819c0-1.455,0-3.491-2.521-3.491c-2.716,0-2.716,2.376-2.716,3.2V209.193z"/>
	<path fill="#FFFFFF" d="M732.037,192.706c0-2.134,0.097-3.831,1.261-5.48c1.601-2.278,4.316-3.006,6.838-3.006
		c8.243,0,8.243,5.964,8.243,7.952v17.36c0,1.746-0.339,4.219-2.327,6.014c-1.939,1.745-4.413,1.794-5.674,1.794
		c-8.341,0-8.341-5.625-8.341-7.953V192.706z M737.614,209.968c0,0.776,0,3.007,2.521,3.007c2.666,0,2.666-2.183,2.666-3.395
		v-17.506c0-1.697,0-3.637-2.521-3.637c-2.666,0-2.666,2.036-2.666,3.395V209.968z"/>
</g>
<g enable-background="new    ">
	<path fill="#FFFFFF" d="M666.133,305.745h6.74v21.772h1.94v4.51h-1.94v6.11h-5.188v-6.11h-9.795v-4.51L666.133,305.745z
		 M667.685,327.517l0.388-16.1l-5.431,16.1H667.685z"/>
	<path fill="#FFFFFF" d="M679.469,313.94c0-2.134,0.097-3.831,1.261-5.48c1.601-2.278,4.316-3.006,6.838-3.006
		c8.243,0,8.243,5.964,8.243,7.952v17.36c0,1.746-0.339,4.219-2.327,6.014c-1.939,1.745-4.413,1.794-5.674,1.794
		c-8.341,0-8.341-5.625-8.341-7.953V313.94z M685.046,331.203c0,0.776,0,3.007,2.521,3.007c2.666,0,2.666-2.183,2.666-3.395v-17.506
		c0-1.697,0-3.637-2.521-3.637c-2.666,0-2.666,2.036-2.666,3.395V331.203z"/>
	<path fill="#FFFFFF" d="M704.152,303.902h4.753l-6.256,34.235h-4.801L704.152,303.902z"/>
	<path fill="#FFFFFF" d="M721.61,314.473c0-3.395,0-4.704-2.473-4.704c-2.716,0-2.716,2.037-2.716,3.2v6.353
		c0.97-0.775,2.474-1.988,5.14-1.988c5.674,0,5.674,5.189,5.674,6.256v7.517c0,1.697,0,7.468-8.146,7.468
		c-1.746,0-3.928-0.34-5.576-1.503c-2.619-1.843-2.619-4.51-2.619-6.062v-18.524c0-5.819,4.656-7.031,8.341-7.031
		c1.503,0,3.298,0.242,4.85,1.066c2.86,1.455,2.86,3.734,2.86,7.953H721.61z M716.422,330.427c0,1.357,0,3.733,2.716,3.733
		c2.521,0,2.521-2.085,2.521-2.909v-5.819c0-1.455,0-3.491-2.521-3.491c-2.716,0-2.716,2.376-2.716,3.2V330.427z"/>
	<path fill="#FFFFFF" d="M732.037,313.94c0-2.134,0.097-3.831,1.261-5.48c1.601-2.278,4.316-3.006,6.838-3.006
		c8.243,0,8.243,5.964,8.243,7.952v17.36c0,1.746-0.339,4.219-2.327,6.014c-1.939,1.745-4.413,1.794-5.674,1.794
		c-8.341,0-8.341-5.625-8.341-7.953V313.94z M737.614,331.203c0,0.776,0,3.007,2.521,3.007c2.666,0,2.666-2.183,2.666-3.395v-17.506
		c0-1.697,0-3.637-2.521-3.637c-2.666,0-2.666,2.036-2.666,3.395V331.203z"/>
</g>
<g enable-background="new    ">
	<path fill="#FFFFFF" d="M533.528,432.426h14.984v4.849h-10.475l-0.098,6.644c1.115-0.775,2.425-1.697,4.752-1.697
		c2.183,0,3.541,0.776,4.365,1.552c1.842,1.601,1.939,3.637,1.939,5.383v8.001c0,2.765-0.437,7.953-8.099,7.953
		c-1.31,0-4.073-0.194-5.916-1.601c-2.134-1.648-2.376-4.315-2.376-5.528v-3.346h5.528v3.298c0,0.679,0,2.764,2.521,2.764
		c1.019,0,2.618-0.193,2.618-2.909v-7.711c0-1.406,0.049-3.637-2.521-3.637c-1.891,0-2.812,1.31-3.152,3.298h-4.412L533.528,432.426
		z"/>
	<path fill="#FFFFFF" d="M553.847,440.476c0-2.134,0.098-3.831,1.261-5.48c1.601-2.278,4.315-3.006,6.837-3.006
		c8.244,0,8.244,5.964,8.244,7.952v17.36c0,1.746-0.34,4.219-2.328,6.014c-1.939,1.745-4.412,1.794-5.673,1.794
		c-8.341,0-8.341-5.625-8.341-7.953V440.476z M559.423,457.739c0,0.776,0,3.007,2.521,3.007c2.668,0,2.668-2.183,2.668-3.395
		v-17.506c0-1.697,0-3.637-2.521-3.637c-2.668,0-2.668,2.036-2.668,3.395V457.739z"/>
	<path fill="#FFFFFF" d="M578.53,430.438h4.752l-6.255,34.235h-4.801L578.53,430.438z"/>
	<path fill="#FFFFFF" d="M586.097,432.426h14.984v4.849h-10.475l-0.098,6.644c1.115-0.775,2.425-1.697,4.752-1.697
		c2.183,0,3.541,0.776,4.365,1.552c1.842,1.601,1.939,3.637,1.939,5.383v8.001c0,2.765-0.437,7.953-8.099,7.953
		c-1.31,0-4.073-0.194-5.916-1.601c-2.134-1.648-2.376-4.315-2.376-5.528v-3.346h5.528v3.298c0,0.679,0,2.764,2.521,2.764
		c1.019,0,2.618-0.193,2.618-2.909v-7.711c0-1.406,0.049-3.637-2.521-3.637c-1.891,0-2.812,1.31-3.152,3.298h-4.412L586.097,432.426
		z"/>
	<path fill="#FFFFFF" d="M606.415,440.476c0-2.134,0.098-3.831,1.261-5.48c1.601-2.278,4.315-3.006,6.837-3.006
		c8.244,0,8.244,5.964,8.244,7.952v17.36c0,1.746-0.34,4.219-2.328,6.014c-1.939,1.745-4.412,1.794-5.673,1.794
		c-8.341,0-8.341-5.625-8.341-7.953V440.476z M611.991,457.739c0,0.776,0,3.007,2.521,3.007c2.668,0,2.668-2.183,2.668-3.395
		v-17.506c0-1.697,0-3.637-2.521-3.637c-2.668,0-2.668,2.036-2.668,3.395V457.739z"/>
</g>
<g enable-background="new    ">
	<path fill="#FFFFFF" d="M666.133,432.281h6.74v21.772h1.94v4.51h-1.94v6.11h-5.188v-6.11h-9.795v-4.51L666.133,432.281z
		 M667.685,454.053l0.388-16.1l-5.431,16.1H667.685z"/>
	<path fill="#FFFFFF" d="M679.469,440.476c0-2.134,0.097-3.831,1.261-5.48c1.601-2.278,4.316-3.006,6.838-3.006
		c8.243,0,8.243,5.964,8.243,7.952v17.36c0,1.746-0.339,4.219-2.327,6.014c-1.939,1.745-4.413,1.794-5.674,1.794
		c-8.341,0-8.341-5.625-8.341-7.953V440.476z M685.046,457.739c0,0.776,0,3.007,2.521,3.007c2.666,0,2.666-2.183,2.666-3.395
		v-17.506c0-1.697,0-3.637-2.521-3.637c-2.666,0-2.666,2.036-2.666,3.395V457.739z"/>
	<path fill="#FFFFFF" d="M704.152,430.438h4.753l-6.256,34.235h-4.801L704.152,430.438z"/>
	<path fill="#FFFFFF" d="M721.61,441.009c0-3.395,0-4.704-2.473-4.704c-2.716,0-2.716,2.037-2.716,3.2v6.353
		c0.97-0.775,2.474-1.988,5.14-1.988c5.674,0,5.674,5.189,5.674,6.256v7.517c0,1.697,0,7.468-8.146,7.468
		c-1.746,0-3.928-0.34-5.576-1.503c-2.619-1.843-2.619-4.51-2.619-6.062v-18.524c0-5.819,4.656-7.031,8.341-7.031
		c1.503,0,3.298,0.242,4.85,1.066c2.86,1.455,2.86,3.734,2.86,7.953H721.61z M716.422,456.963c0,1.357,0,3.733,2.716,3.733
		c2.521,0,2.521-2.085,2.521-2.909v-5.819c0-1.455,0-3.491-2.521-3.491c-2.716,0-2.716,2.376-2.716,3.2V456.963z"/>
	<path fill="#FFFFFF" d="M732.037,440.476c0-2.134,0.097-3.831,1.261-5.48c1.601-2.278,4.316-3.006,6.838-3.006
		c8.243,0,8.243,5.964,8.243,7.952v17.36c0,1.746-0.339,4.219-2.327,6.014c-1.939,1.745-4.413,1.794-5.674,1.794
		c-8.341,0-8.341-5.625-8.341-7.953V440.476z M737.614,457.739c0,0.776,0,3.007,2.521,3.007c2.666,0,2.666-2.183,2.666-3.395
		v-17.506c0-1.697,0-3.637-2.521-3.637c-2.666,0-2.666,2.036-2.666,3.395V457.739z"/>
</g>
<g enable-background="new    ">
	<path fill="#6DA69F" d="M177.51,313.94c0-2.134,0.097-3.831,1.261-5.48c1.601-2.278,4.316-3.006,6.837-3.006
		c8.244,0,8.244,5.964,8.244,7.952v17.36c0,1.746-0.339,4.219-2.328,6.014c-1.939,1.745-4.413,1.794-5.673,1.794
		c-8.341,0-8.341-5.625-8.341-7.953V313.94z M183.087,331.203c0,0.776,0,3.007,2.521,3.007c2.667,0,2.667-2.183,2.667-3.395v-17.506
		c0-1.697,0-3.637-2.521-3.637c-2.667,0-2.667,2.036-2.667,3.395V331.203z"/>
	<path fill="#6DA69F" d="M202.194,303.902h4.752l-6.255,34.235h-4.801L202.194,303.902z"/>
	<path fill="#6DA69F" d="M208.838,313.94c0-2.134,0.097-3.831,1.261-5.48c1.601-2.278,4.316-3.006,6.837-3.006
		c8.244,0,8.244,5.964,8.244,7.952v17.36c0,1.746-0.339,4.219-2.328,6.014c-1.939,1.745-4.413,1.794-5.673,1.794
		c-8.341,0-8.341-5.625-8.341-7.953V313.94z M214.415,331.203c0,0.776,0,3.007,2.521,3.007c2.667,0,2.667-2.183,2.667-3.395v-17.506
		c0-1.697,0-3.637-2.521-3.637c-2.667,0-2.667,2.036-2.667,3.395V331.203z"/>
</g>
<g enable-background="new    ">
	<path fill="#6DA69F" d="M177.51,440.476c0-2.134,0.097-3.831,1.261-5.48c1.601-2.278,4.316-3.006,6.837-3.006
		c8.244,0,8.244,5.964,8.244,7.952v17.36c0,1.746-0.339,4.219-2.328,6.014c-1.939,1.745-4.413,1.794-5.673,1.794
		c-8.341,0-8.341-5.625-8.341-7.953V440.476z M183.087,457.739c0,0.776,0,3.007,2.521,3.007c2.667,0,2.667-2.183,2.667-3.395
		v-17.506c0-1.697,0-3.637-2.521-3.637c-2.667,0-2.667,2.036-2.667,3.395V457.739z"/>
	<path fill="#6DA69F" d="M202.194,430.438h4.752l-6.255,34.235h-4.801L202.194,430.438z"/>
	<path fill="#6DA69F" d="M208.838,440.476c0-2.134,0.097-3.831,1.261-5.48c1.601-2.278,4.316-3.006,6.837-3.006
		c8.244,0,8.244,5.964,8.244,7.952v17.36c0,1.746-0.339,4.219-2.328,6.014c-1.939,1.745-4.413,1.794-5.673,1.794
		c-8.341,0-8.341-5.625-8.341-7.953V440.476z M214.415,457.739c0,0.776,0,3.007,2.521,3.007c2.667,0,2.667-2.183,2.667-3.395
		v-17.506c0-1.697,0-3.637-2.521-3.637c-2.667,0-2.667,2.036-2.667,3.395V457.739z"/>
</g>
<g enable-background="new    ">
	<path fill="#6DA69F" d="M302.491,313.94c0-2.134,0.097-3.831,1.261-5.48c1.601-2.278,4.316-3.006,6.837-3.006
		c8.244,0,8.244,5.964,8.244,7.952v17.36c0,1.746-0.339,4.219-2.328,6.014c-1.939,1.745-4.413,1.794-5.673,1.794
		c-8.341,0-8.341-5.625-8.341-7.953V313.94z M308.067,331.203c0,0.776,0,3.007,2.521,3.007c2.667,0,2.667-2.183,2.667-3.395v-17.506
		c0-1.697,0-3.637-2.521-3.637c-2.667,0-2.667,2.036-2.667,3.395V331.203z"/>
	<path fill="#6DA69F" d="M327.174,303.902h4.752l-6.255,34.235h-4.801L327.174,303.902z"/>
	<path fill="#6DA69F" d="M333.819,313.94c0-2.134,0.097-3.831,1.261-5.48c1.601-2.278,4.316-3.006,6.837-3.006
		c8.244,0,8.244,5.964,8.244,7.952v17.36c0,1.746-0.339,4.219-2.328,6.014c-1.939,1.745-4.413,1.794-5.673,1.794
		c-8.341,0-8.341-5.625-8.341-7.953V313.94z M339.396,331.203c0,0.776,0,3.007,2.521,3.007c2.667,0,2.667-2.183,2.667-3.395v-17.506
		c0-1.697,0-3.637-2.521-3.637c-2.667,0-2.667,2.036-2.667,3.395V331.203z"/>
</g>
<g enable-background="new    ">
	<path fill="#6DA69F" d="M302.491,440.476c0-2.134,0.097-3.831,1.261-5.48c1.601-2.278,4.316-3.006,6.837-3.006
		c8.244,0,8.244,5.964,8.244,7.952v17.36c0,1.746-0.339,4.219-2.328,6.014c-1.939,1.745-4.413,1.794-5.673,1.794
		c-8.341,0-8.341-5.625-8.341-7.953V440.476z M308.067,457.739c0,0.776,0,3.007,2.521,3.007c2.667,0,2.667-2.183,2.667-3.395
		v-17.506c0-1.697,0-3.637-2.521-3.637c-2.667,0-2.667,2.036-2.667,3.395V457.739z"/>
	<path fill="#6DA69F" d="M327.174,430.438h4.752l-6.255,34.235h-4.801L327.174,430.438z"/>
	<path fill="#6DA69F" d="M333.819,440.476c0-2.134,0.097-3.831,1.261-5.48c1.601-2.278,4.316-3.006,6.837-3.006
		c8.244,0,8.244,5.964,8.244,7.952v17.36c0,1.746-0.339,4.219-2.328,6.014c-1.939,1.745-4.413,1.794-5.673,1.794
		c-8.341,0-8.341-5.625-8.341-7.953V440.476z M339.396,457.739c0,0.776,0,3.007,2.521,3.007c2.667,0,2.667-2.183,2.667-3.395
		v-17.506c0-1.697,0-3.637-2.521-3.637c-2.667,0-2.667,2.036-2.667,3.395V457.739z"/>
</g>
<g enable-background="new    ">
	<path fill="#6DA69F" d="M428.455,440.476c0-2.134,0.097-3.831,1.261-5.48c1.601-2.278,4.316-3.006,6.838-3.006
		c8.243,0,8.243,5.964,8.243,7.952v17.36c0,1.746-0.339,4.219-2.327,6.014c-1.939,1.745-4.413,1.794-5.674,1.794
		c-8.341,0-8.341-5.625-8.341-7.953V440.476z M434.032,457.739c0,0.776,0,3.007,2.521,3.007c2.666,0,2.666-2.183,2.666-3.395
		v-17.506c0-1.697,0-3.637-2.521-3.637c-2.666,0-2.666,2.036-2.666,3.395V457.739z"/>
	<path fill="#6DA69F" d="M453.139,430.438h4.753l-6.256,34.235h-4.801L453.139,430.438z"/>
	<path fill="#6DA69F" d="M459.783,440.476c0-2.134,0.097-3.831,1.261-5.48c1.601-2.278,4.316-3.006,6.838-3.006
		c8.243,0,8.243,5.964,8.243,7.952v17.36c0,1.746-0.339,4.219-2.327,6.014c-1.939,1.745-4.413,1.794-5.674,1.794
		c-8.341,0-8.341-5.625-8.341-7.953V440.476z M465.36,457.739c0,0.776,0,3.007,2.521,3.007c2.666,0,2.666-2.183,2.666-3.395v-17.506
		c0-1.697,0-3.637-2.521-3.637c-2.666,0-2.666,2.036-2.666,3.395V457.739z"/>
</g>
<g enable-background="new    ">
	<path fill="#339963" d="M298.406,110.514h3.45c0,1.29,0,1.44,0.03,1.71c0.03,0.36,0.12,1.29,1.56,1.29c1.68,0,1.68-1.02,1.68-2.16
		v-3.779c-0.84,0.63-1.59,1.17-3.03,1.17c-2.55,0-3.69-1.44-3.69-3.479v-4.92c0-3.24,1.59-4.68,5.22-4.68
		c3.87,0,4.919,2.039,4.919,4.379v11.58c0,3.689-2.67,4.529-5.25,4.529c-3.42,0-4.89-1.709-4.89-4.05V110.514z M301.856,103.825
		c0,0.93,0,2.16,1.56,2.16c1.71,0,1.71-1.23,1.71-2.16v-3.66c0-0.75-0.15-1.859-1.59-1.859c-1.68,0-1.68,1.26-1.68,2.04V103.825z"/>
	<path fill="#339963" d="M311.636,100.915c0-1.319,0.06-2.369,0.78-3.39c0.99-1.41,2.67-1.859,4.23-1.859c5.1,0,5.1,3.689,5.1,4.919
		v10.74c0,1.08-0.21,2.609-1.44,3.72c-1.2,1.08-2.73,1.109-3.51,1.109c-5.16,0-5.16-3.479-5.16-4.919V100.915z M315.086,111.594
		c0,0.48,0,1.86,1.56,1.86c1.65,0,1.65-1.351,1.65-2.101v-10.829c0-1.05,0-2.25-1.56-2.25c-1.65,0-1.65,1.26-1.65,2.1V111.594z"/>
	<path fill="#339963" d="M326.906,94.706h2.94l-3.87,21.179h-2.97L326.906,94.706z"/>
</g>
<g enable-background="new    ">
	<path fill="#0094BB" d="M330.327,99.145c0.39-0.09,1.23-0.3,2.49-1.29c0.78-0.6,1.11-1.11,1.68-1.92h2.34v19.949h-3.51v-15.239
		c-0.36,0.33-1.05,0.93-3,1.26V99.145z"/>
	<path fill="#0094BB" d="M339.483,100.915c0-1.319,0.06-2.369,0.78-3.39c0.99-1.41,2.67-1.859,4.23-1.859c5.1,0,5.1,3.689,5.1,4.919
		v10.74c0,1.08-0.21,2.609-1.44,3.72c-1.2,1.08-2.73,1.109-3.51,1.109c-5.16,0-5.16-3.479-5.16-4.919V100.915z M342.933,111.594
		c0,0.48,0,1.86,1.56,1.86c1.65,0,1.65-1.351,1.65-2.101v-10.829c0-1.05,0-2.25-1.56-2.25c-1.65,0-1.65,1.26-1.65,2.1V111.594z"/>
</g>
<g enable-background="new    ">
	<path fill="#339963" d="M428.951,101.245c0-2.1,0-2.909-1.53-2.909c-1.68,0-1.68,1.26-1.68,1.979v3.93
		c0.6-0.479,1.53-1.229,3.18-1.229c3.51,0,3.51,3.21,3.51,3.869v4.65c0,1.05,0,4.619-5.039,4.619c-1.08,0-2.43-0.21-3.45-0.93
		c-1.62-1.14-1.62-2.79-1.62-3.75v-11.459c0-3.6,2.881-4.35,5.16-4.35c0.93,0,2.04,0.149,3,0.659c1.77,0.9,1.77,2.311,1.77,4.92
		H428.951z M425.741,111.115c0,0.84,0,2.31,1.68,2.31c1.561,0,1.561-1.29,1.561-1.8v-3.6c0-0.9,0-2.16-1.561-2.16
		c-1.68,0-1.68,1.47-1.68,1.979V111.115z"/>
	<path fill="#339963" d="M435.401,100.915c0-1.319,0.061-2.369,0.779-3.39c0.99-1.41,2.67-1.859,4.23-1.859
		c5.1,0,5.1,3.689,5.1,4.919v10.74c0,1.08-0.21,2.609-1.439,3.72c-1.2,1.08-2.73,1.109-3.51,1.109c-5.16,0-5.16-3.479-5.16-4.919
		V100.915z M438.851,111.594c0,0.48,0,1.86,1.561,1.86c1.65,0,1.65-1.351,1.65-2.101v-10.829c0-1.05,0-2.25-1.561-2.25
		c-1.65,0-1.65,1.26-1.65,2.1V111.594z"/>
	<path fill="#339963" d="M450.671,94.706h2.939l-3.869,21.179h-2.971L450.671,94.706z"/>
</g>
<g enable-background="new    ">
	<path fill="#0094BB" d="M458.411,95.845h4.17v13.47h1.199v2.789h-1.199v3.78h-3.21v-3.78h-6.06v-2.789L458.411,95.845z
		 M459.371,109.315l0.24-9.96l-3.36,9.96H459.371z"/>
	<path fill="#0094BB" d="M466.661,100.915c0-1.319,0.061-2.369,0.779-3.39c0.99-1.41,2.67-1.859,4.23-1.859
		c5.1,0,5.1,3.689,5.1,4.919v10.74c0,1.08-0.21,2.609-1.439,3.72c-1.2,1.08-2.73,1.109-3.51,1.109c-5.16,0-5.16-3.479-5.16-4.919
		V100.915z M470.11,111.594c0,0.48,0,1.86,1.561,1.86c1.65,0,1.65-1.351,1.65-2.101v-10.829c0-1.05,0-2.25-1.561-2.25
		c-1.65,0-1.65,1.26-1.65,2.1V111.594z"/>
</g>
<g enable-background="new    ">
	<path fill="#339963" d="M96.697,474.726v-9.27h3v6.48l4.109,0.06c-0.479-0.69-1.05-1.5-1.05-2.94c0-1.35,0.48-2.189,0.96-2.699
		c0.99-1.141,2.25-1.2,3.33-1.2h4.95c1.71,0,4.919,0.271,4.919,5.01c0,0.81-0.119,2.521-0.989,3.66
		c-1.021,1.319-2.67,1.47-3.42,1.47h-2.07v-3.42h2.04c0.42,0,1.71,0,1.71-1.56c0-0.63-0.12-1.62-1.8-1.62h-4.77
		c-0.87,0-2.25-0.029-2.25,1.561c0,1.17,0.81,1.739,2.04,1.949v2.73L96.697,474.726z"/>
	<path fill="#339963" d="M101.677,462.157c-1.319,0-2.369-0.06-3.39-0.78c-1.41-0.989-1.859-2.67-1.859-4.229
		c0-5.1,3.689-5.1,4.919-5.1h10.74c1.08,0,2.609,0.21,3.72,1.44c1.08,1.199,1.109,2.729,1.109,3.51c0,5.159-3.479,5.159-4.919,5.159
		H101.677z M112.356,458.707c0.48,0,1.86,0,1.86-1.56c0-1.649-1.351-1.649-2.101-1.649h-10.829c-1.05,0-2.25,0-2.25,1.56
		c0,1.649,1.26,1.649,2.1,1.649H112.356z"/>
</g>
<g enable-background="new    ">
	<path fill="#0094BB" d="M95.468,448.147v-2.94l21.179,3.87v2.97L95.468,448.147z"/>
	<path fill="#0094BB" d="M96.697,443.466v-9.27h3v6.48l4.109,0.06c-0.479-0.69-1.05-1.5-1.05-2.94c0-1.35,0.48-2.189,0.96-2.699
		c0.99-1.141,2.25-1.2,3.33-1.2h4.95c1.71,0,4.919,0.271,4.919,5.01c0,0.81-0.119,2.521-0.989,3.66
		c-1.021,1.319-2.67,1.47-3.42,1.47h-2.07v-3.42h2.04c0.42,0,1.71,0,1.71-1.56c0-0.63-0.12-1.62-1.8-1.62h-4.77
		c-0.87,0-2.25-0.029-2.25,1.561c0,1.17,0.81,1.739,2.04,1.949v2.73L96.697,443.466z"/>
	<path fill="#0094BB" d="M101.677,430.897c-1.319,0-2.369-0.06-3.39-0.78c-1.41-0.989-1.859-2.67-1.859-4.229
		c0-5.1,3.689-5.1,4.919-5.1h10.74c1.08,0,2.609,0.21,3.72,1.44c1.08,1.199,1.109,2.729,1.109,3.51c0,5.159-3.479,5.159-4.919,5.159
		H101.677z M112.356,427.447c0.48,0,1.86,0,1.86-1.56c0-1.649-1.351-1.649-2.101-1.649h-10.829c-1.05,0-2.25,0-2.25,1.56
		c0,1.649,1.26,1.649,2.1,1.649H112.356z"/>
</g>
<g enable-background="new    ">
	<path fill="#339963" d="M102.006,344.841c-2.1,0-2.909,0-2.909,1.529c0,1.681,1.26,1.681,1.979,1.681h3.93
		c-0.479-0.601-1.229-1.53-1.229-3.181c0-3.51,3.21-3.51,3.869-3.51h4.65c1.05,0,4.619,0,4.619,5.04c0,1.08-0.21,2.431-0.93,3.45
		c-1.14,1.619-2.79,1.619-3.75,1.619h-11.459c-3.6,0-4.35-2.879-4.35-5.159c0-0.93,0.149-2.04,0.659-3
		c0.9-1.77,2.311-1.77,4.92-1.77V344.841z M111.876,348.051c0.84,0,2.31,0,2.31-1.681c0-1.56-1.29-1.56-1.8-1.56h-3.6
		c-0.9,0-2.16,0-2.16,1.56c0,1.681,1.47,1.681,1.979,1.681H111.876z"/>
	<path fill="#339963" d="M96.696,337.822v-9.27h3v6.479l4.109,0.061c-0.479-0.689-1.05-1.5-1.05-2.939c0-1.35,0.48-2.19,0.96-2.7
		c0.99-1.14,2.25-1.2,3.33-1.2h4.95c1.71,0,4.919,0.27,4.919,5.01c0,0.811-0.119,2.52-0.989,3.66c-1.021,1.32-2.67,1.47-3.42,1.47
		h-2.07v-3.42h2.04c0.42,0,1.71,0,1.71-1.56c0-0.63-0.12-1.62-1.8-1.62h-4.77c-0.87,0-2.25-0.03-2.25,1.56
		c0,1.17,0.81,1.74,2.04,1.95v2.729L96.696,337.822z"/>
</g>
<g enable-background="new    ">
	<path fill="#0094BB" d="M95.467,324.381v-2.94l21.179,3.87v2.97L95.467,324.381z"/>
	<path fill="#0094BB" d="M102.666,316.792v3.3h-2.46c-1.17,0-2.31-0.54-2.939-1.53c-0.66-0.989-0.84-2.46-0.84-3.45
		c0-4.68,3.39-4.859,4.02-4.859h2.34c2.07,0,2.76,0.721,3.09,2.88c0.39-2.34,0.75-3,3.45-3h3.029c3.54,0,4.56,2.67,4.56,5.04
		c0,3.33-1.829,5.1-4.109,5.1h-2.43v-3.449h2.13c0.6,0,1.739,0,1.739-1.711c0-0.959-0.479-1.5-1.619-1.5h-2.97
		c-2.37,0-2.49,0.9-2.49,3.301h-2.34c0-2.34-0.3-3.18-2.43-3.18h-1.5c-0.721,0-1.74,0-1.74,1.5c0,1.56,1.14,1.56,1.47,1.56H102.666z
		"/>
	<path fill="#0094BB" d="M96.696,306.562v-9.27h3v6.479l4.109,0.061c-0.479-0.689-1.05-1.5-1.05-2.939c0-1.35,0.48-2.19,0.96-2.7
		c0.99-1.14,2.25-1.2,3.33-1.2h4.95c1.71,0,4.919,0.27,4.919,5.01c0,0.811-0.119,2.52-0.989,3.66c-1.021,1.32-2.67,1.47-3.42,1.47
		h-2.07v-3.42h2.04c0.42,0,1.71,0,1.71-1.56c0-0.63-0.12-1.62-1.8-1.62h-4.77c-0.87,0-2.25-0.03-2.25,1.56
		c0,1.17,0.81,1.74,2.04,1.95v2.729L96.696,306.562z"/>
</g>
<g enable-background="new    ">
	<path fill="#339963" d="M111.275,221.915v-3.45c1.29,0,1.44,0,1.71-0.03c0.36-0.03,1.29-0.12,1.29-1.56c0-1.68-1.02-1.68-2.16-1.68
		h-3.779c0.63,0.84,1.17,1.59,1.17,3.03c0,2.55-1.44,3.69-3.479,3.69h-4.92c-3.24,0-4.68-1.59-4.68-5.22
		c0-3.87,2.039-4.919,4.379-4.919h11.58c3.689,0,4.529,2.67,4.529,5.25c0,3.42-1.709,4.89-4.05,4.89H111.275z M104.586,218.465
		c0.93,0,2.16,0,2.16-1.56c0-1.71-1.23-1.71-2.16-1.71h-3.66c-0.75,0-1.859,0.15-1.859,1.59c0,1.68,1.26,1.68,2.04,1.68H104.586z"/>
	<path fill="#339963" d="M111.275,208.775v-3.45c1.29,0,1.44,0,1.71-0.03c0.36-0.03,1.29-0.12,1.29-1.56c0-1.68-1.02-1.68-2.16-1.68
		h-3.779c0.63,0.84,1.17,1.59,1.17,3.03c0,2.55-1.44,3.69-3.479,3.69h-4.92c-3.24,0-4.68-1.59-4.68-5.22
		c0-3.87,2.039-4.919,4.379-4.919h11.58c3.689,0,4.529,2.67,4.529,5.25c0,3.42-1.709,4.89-4.05,4.89H111.275z M104.586,205.325
		c0.93,0,2.16,0,2.16-1.56c0-1.71-1.23-1.71-2.16-1.71h-3.66c-0.75,0-1.859,0.15-1.859,1.59c0,1.68,1.26,1.68,2.04,1.68H104.586z"/>
</g>
<g enable-background="new    ">
	<path fill="#0094BB" d="M95.467,194.675v-2.94l21.179,3.87v2.97L95.467,194.675z"/>
	<path fill="#0094BB" d="M99.906,189.995c-0.09-0.39-0.3-1.23-1.29-2.49c-0.6-0.78-1.11-1.11-1.92-1.68v-2.34h19.949v3.51h-15.239
		c0.33,0.36,0.93,1.05,1.26,3H99.906z"/>
</g>
</svg>
