<svg xmlns="http://www.w3.org/2000/svg" width="960" height="360" viewBox="0 0 960 360" role="img" aria-label="Rule based programming versus machine learning"><rect width="100%" height="100%" fill="#fff"/><defs><marker id="a" markerWidth="10" markerHeight="10" refX="9" refY="3" orient="auto"><path d="M0,0 L0,6 L9,3 z" fill="#475569"/></marker></defs><g font-family="Arial, sans-serif" fill="#0f172a"><text x="95" y="50" font-size="25" font-weight="700">Traditional Programming</text><text x="605" y="50" font-size="25" font-weight="700">Machine Learning</text><rect x="70" y="105" width="130" height="58" rx="12" fill="#dbeafe" stroke="#2563eb" stroke-width="3"/><text x="112" y="141" font-size="19">Data</text><rect x="70" y="205" width="130" height="58" rx="12" fill="#fef3c7" stroke="#f59e0b" stroke-width="3"/><text x="108" y="241" font-size="19">Rules</text><rect x="300" y="155" width="130" height="58" rx="12" fill="#dcfce7" stroke="#16a34a" stroke-width="3"/><text x="335" y="191" font-size="19">Output</text><line x1="202" y1="134" x2="295" y2="172" stroke="#475569" stroke-width="3" marker-end="url(#a)"/><line x1="202" y1="234" x2="295" y2="196" stroke="#475569" stroke-width="3" marker-end="url(#a)"/><rect x="555" y="105" width="130" height="58" rx="12" fill="#dbeafe" stroke="#2563eb" stroke-width="3"/><text x="597" y="141" font-size="19">Data</text><rect x="555" y="205" width="130" height="58" rx="12" fill="#dcfce7" stroke="#16a34a" stroke-width="3"/><text x="584" y="241" font-size="19">Answers</text><rect x="785" y="155" width="130" height="58" rx="12" fill="#fef3c7" stroke="#f59e0b" stroke-width="3"/><text x="823" y="191" font-size="19">Rules</text><line x1="687" y1="134" x2="780" y2="172" stroke="#475569" stroke-width="3" marker-end="url(#a)"/><line x1="687" y1="234" x2="780" y2="196" stroke="#475569" stroke-width="3" marker-end="url(#a)"/></g></svg>