<svg xmlns="http://www.w3.org/2000/svg" width="960" height="360" viewBox="0 0 960 360" role="img" aria-label="Softmax converts logits to probabilities"><rect width="100%" height="100%" fill="#fff"/><defs><marker id="a" markerWidth="10" markerHeight="10" refX="9" refY="3" orient="auto"><path d="M0,0 L0,6 L9,3 z" fill="#475569"/></marker></defs><g font-family="Arial, sans-serif" fill="#0f172a"><text x="90" y="50" font-size="25" font-weight="700">Logits</text><text x="620" y="50" font-size="25" font-weight="700">Probabilities</text><rect x="90" y="115" width="55" height="150" fill="#bfdbfe"/><rect x="170" y="160" width="55" height="105" fill="#bfdbfe"/><rect x="250" y="70" width="55" height="195" fill="#bfdbfe"/><text x="90" y="292" font-size="18">-1.2</text><text x="175" y="292" font-size="18">0.8</text><text x="258" y="292" font-size="18">3.5</text><rect x="405" y="140" width="130" height="80" rx="18" fill="#dcfce7" stroke="#16a34a" stroke-width="3"/><text x="432" y="188" font-size="22">Softmax</text><line x1="330" y1="180" x2="400" y2="180" stroke="#475569" stroke-width="4" marker-end="url(#a)"/><line x1="540" y1="180" x2="610" y2="180" stroke="#475569" stroke-width="4" marker-end="url(#a)"/><rect x="625" y="238" width="55" height="27" fill="#86efac"/><rect x="710" y="210" width="55" height="55" fill="#86efac"/><rect x="795" y="85" width="55" height="180" fill="#22c55e"/><text x="630" y="292" font-size="18">3%</text><text x="713" y="292" font-size="18">14%</text><text x="798" y="292" font-size="18">83%</text></g></svg>