<svg xmlns="http://www.w3.org/2000/svg" width="960" height="360" viewBox="0 0 960 360" role="img" aria-label="Vector and matrix visualization"><rect width="100%" height="100%" fill="#fff"/><defs><marker id="a" markerWidth="10" markerHeight="10" refX="9" refY="3" orient="auto"><path d="M0,0 L0,6 L9,3 z" fill="#475569"/></marker></defs><g font-family="Arial, sans-serif" fill="#0f172a"><text x="120" y="55" font-size="28" font-weight="700">Vector</text><text x="565" y="55" font-size="28" font-weight="700">Matrix</text><rect x="110" y="95" width="85" height="55" fill="#dbeafe" stroke="#2563eb" stroke-width="3"/><rect x="110" y="150" width="85" height="55" fill="#dbeafe" stroke="#2563eb" stroke-width="3"/><rect x="110" y="205" width="85" height="55" fill="#dbeafe" stroke="#2563eb" stroke-width="3"/><text x="145" y="130" font-size="24">3</text><text x="145" y="185" font-size="24">7</text><text x="145" y="240" font-size="24">2</text><g font-size="22"><rect x="500" y="95" width="80" height="55" fill="#fef3c7" stroke="#f59e0b" stroke-width="3"/><rect x="580" y="95" width="80" height="55" fill="#fef3c7" stroke="#f59e0b" stroke-width="3"/><rect x="660" y="95" width="80" height="55" fill="#fef3c7" stroke="#f59e0b" stroke-width="3"/><rect x="500" y="150" width="80" height="55" fill="#fef3c7" stroke="#f59e0b" stroke-width="3"/><rect x="580" y="150" width="80" height="55" fill="#fef3c7" stroke="#f59e0b" stroke-width="3"/><rect x="660" y="150" width="80" height="55" fill="#fef3c7" stroke="#f59e0b" stroke-width="3"/><rect x="500" y="205" width="80" height="55" fill="#fef3c7" stroke="#f59e0b" stroke-width="3"/><rect x="580" y="205" width="80" height="55" fill="#fef3c7" stroke="#f59e0b" stroke-width="3"/><rect x="660" y="205" width="80" height="55" fill="#fef3c7" stroke="#f59e0b" stroke-width="3"/><text x="532" y="130">1</text><text x="612" y="130">0</text><text x="692" y="130">2</text><text x="532" y="185">4</text><text x="612" y="185">5</text><text x="692" y="185">6</text><text x="532" y="240">7</text><text x="612" y="240">8</text><text x="692" y="240">9</text></g></g></svg>